# xmcd CD database file
#
# Track frame offsets:
#	150
#	15487
#	46257
#	86163
#
# Disc length: 1514 seconds
#
# Revision: 0
# Processed by: cddbd v1.5.1PL0 Copyright (c) Steve Scherf et al.
# Submitted via: CDex 1.51
#
DISCID=2505e804
DTITLE=CARMA - SUMMER FEELING
DYEAR=2004
DGENRE=New Age
TTITLE0=SUMMER FEELING (RADIO MIX(
TTITLE1=TIME IN A MIRROR (DEEP HOUSE MIX)
TTITLE2=TIME IN A MIRROR (CHILL OUT MIX)
TTITLE3=SUMMER FEELING (VIDEO CLIP)
EXTD=YEAR: 2004
EXTT0=
EXTT1=
EXTT2=
EXTT3=
PLAYORDER=
